<?xml version="1.0" encoding="UTF-8"?> <svg xmlns="http://www.w3.org/2000/svg" width="956" height="956" viewBox="0 0 956 956" fill="none"><circle cx="478" cy="478" r="478" fill="#39A1FF"></circle><path d="M722.662 376.234L692.17 406.71L749.524 464.032H440.974L621.022 288.437V369.704H664.582V236.194C664.582 230.42 662.287 224.884 658.203 220.801C654.118 216.719 648.578 214.426 642.802 214.426H509.218V257.962H589.078L378.538 464.032H295.048C289.772 444.702 277.656 427.943 260.95 416.868C244.244 405.792 224.084 401.154 204.214 403.814C184.344 406.474 166.116 416.251 152.915 431.33C139.714 446.409 132.437 465.764 132.437 485.8C132.437 505.836 139.714 525.191 152.915 540.27C166.116 555.349 184.344 565.126 204.214 567.786C224.084 570.446 244.244 565.808 260.95 554.732C277.656 543.657 289.772 526.898 295.048 507.568H379.264L589.804 713.638H509.944V757.174H643.528C649.304 757.174 654.844 754.881 658.929 750.799C663.013 746.716 665.308 741.18 665.308 735.406V601.896H621.748V683.163L441.7 507.568H749.524L692.17 564.89L722.662 595.366L817.042 501.038C821.033 496.969 823.268 491.498 823.268 485.8C823.268 480.102 821.033 474.631 817.042 470.562L722.662 376.234Z" fill="white"></path></svg> 