<?xml version="1.0" encoding="UTF-8"?> <svg xmlns="http://www.w3.org/2000/svg" width="956" height="956" viewBox="0 0 956 956" fill="none"><circle cx="478" cy="478" r="478" fill="#39A1FF"></circle><path d="M607.216 381.006C531.249 381.006 469.425 442.789 469.425 518.638C469.425 657.821 597.416 740.642 602.838 744.058C604.206 744.946 605.665 745.356 607.216 745.356C608.766 745.356 610.225 744.946 611.593 744.058C617.019 740.665 745.006 657.821 745.006 518.638C745.006 442.76 683.152 381.006 607.216 381.006ZM607.216 583.429C571.468 583.429 542.379 554.371 542.379 518.667C542.379 482.963 571.47 453.906 607.216 453.906C642.961 453.906 672.052 482.963 672.052 518.667C672.052 554.371 642.961 583.429 607.216 583.429Z" fill="white"></path><path d="M550.469 729.169H396.441C378.522 729.169 364.022 714.686 364.022 696.787C364.022 678.889 378.522 664.406 396.441 664.406H404.557C431.391 664.406 453.186 642.635 453.186 615.833C453.186 589.03 431.39 567.261 404.557 567.261H339.721C312.887 567.261 291.092 545.49 291.092 518.688C291.092 491.885 312.888 470.116 339.721 470.116H408.619C437.642 470.116 461.306 446.478 461.306 417.49C461.306 388.501 437.641 364.864 408.619 364.864L258.654 364.818V305.065L335.256 266.762C338.015 265.396 339.725 262.641 339.725 259.566C339.725 256.492 338.015 253.737 335.256 252.37L254.183 211.882C251.675 210.584 248.666 210.743 246.249 212.2C243.901 213.658 242.442 216.254 242.442 219.078V364.818H218.116C213.648 364.818 210 368.462 210 372.925C210 377.388 213.648 381.032 218.116 381.032H408.621C428.729 381.032 445.098 397.382 445.098 417.467C445.098 437.552 428.729 453.902 408.621 453.902H339.723C303.975 453.902 274.886 482.959 274.886 518.664C274.886 554.368 303.977 583.425 339.723 583.425H404.559C422.478 583.425 436.978 597.908 436.978 615.807C436.978 633.705 422.478 648.189 404.559 648.189H396.443C369.609 648.189 347.814 669.959 347.814 696.761C347.814 723.563 369.609 745.333 396.443 745.333H550.47C554.939 745.333 558.586 741.69 558.586 737.227C558.586 732.764 554.938 729.12 550.47 729.12L550.469 729.169ZM258.65 232.193L313.457 259.565L258.65 286.937V232.193Z" fill="white"></path></svg> 