<?xml version="1.0" encoding="UTF-8"?> <svg xmlns="http://www.w3.org/2000/svg" width="956" height="956" viewBox="0 0 956 956" fill="none"><circle cx="478" cy="478" r="478" fill="#39A1FF"></circle><path d="M763.448 511.639L718.833 421.894C716.066 416.294 711.775 411.584 706.452 408.301C701.129 405.019 694.987 403.297 688.729 403.332H618.526C616.929 403.332 615.398 403.965 614.269 405.092C613.14 406.218 612.505 407.746 612.505 409.339V533.445H208.869C207.272 533.445 205.74 534.078 204.611 535.204C203.482 536.331 202.848 537.859 202.848 539.452V591.954C202.848 597.928 205.227 603.658 209.461 607.882C213.695 612.107 219.438 614.48 225.426 614.48H281.299C281.057 612.487 280.937 610.481 280.938 608.473C280.938 593.959 286.717 580.04 297.003 569.777C307.29 559.514 321.241 553.749 335.788 553.749C350.335 553.749 364.286 559.514 374.573 569.777C384.859 580.04 390.638 593.959 390.638 608.473C390.639 610.481 390.519 612.487 390.276 614.48H635.264C635.022 612.487 634.901 610.481 634.903 608.473C634.903 593.959 640.682 580.04 650.968 569.777C661.254 559.514 675.206 553.749 689.753 553.749C704.3 553.749 718.251 559.514 728.537 569.777C738.824 580.04 744.602 593.959 744.602 608.473C744.604 610.481 744.483 612.487 744.241 614.48C747.221 614.504 750.177 613.939 752.937 612.817C755.697 611.696 758.208 610.041 760.323 607.946C762.439 605.852 764.118 603.361 765.264 600.616C766.41 597.871 767 594.927 767 591.954V526.537C766.975 521.365 765.76 516.268 763.448 511.639ZM624.547 486.71V415.346H688.729C692.755 415.342 696.701 416.466 700.118 418.59C703.535 420.714 706.286 423.753 708.056 427.36L737.679 486.83L624.547 486.71Z" fill="white"></path><path d="M638.455 310.823C638.455 312.417 637.821 313.945 636.692 315.071C635.563 316.198 634.031 316.831 632.434 316.831H624.607V391.318H618.586C613.796 391.318 609.202 393.217 605.814 396.596C602.427 399.976 600.524 404.56 600.524 409.339V521.431H208.869C206.812 521.418 204.771 521.785 202.848 522.512V310.823C202.848 309.23 203.482 307.702 204.611 306.576C205.74 305.449 207.272 304.816 208.869 304.816H632.434C634.031 304.816 635.563 305.449 636.692 306.576C637.821 307.702 638.455 309.23 638.455 310.823Z" fill="white"></path><path d="M208.869 304.816C207.272 304.816 205.741 305.449 204.611 306.576C203.482 307.702 202.848 309.23 202.848 310.823V316.831H195.021C193.424 316.831 191.893 316.198 190.763 315.071C189.634 313.945 189 312.417 189 310.823C189 309.23 189.634 307.702 190.763 306.576C191.893 305.449 193.424 304.816 195.021 304.816H208.869Z" fill="white"></path><path d="M689.753 651.183C713.395 651.183 732.561 632.061 732.561 608.473C732.561 584.885 713.395 565.763 689.753 565.763C666.11 565.763 646.945 584.885 646.945 608.473C646.945 632.061 666.11 651.183 689.753 651.183Z" fill="white"></path><path d="M335.788 651.183C359.43 651.183 378.596 632.061 378.596 608.473C378.596 584.885 359.43 565.763 335.788 565.763C312.146 565.763 292.98 584.885 292.98 608.473C292.98 632.061 312.146 651.183 335.788 651.183Z" fill="white"></path></svg> 