<?xml version="1.0" encoding="UTF-8"?> <svg xmlns="http://www.w3.org/2000/svg" width="956" height="956" viewBox="0 0 956 956" fill="none"><circle cx="478" cy="478" r="478" fill="#39A1FF"></circle><path d="M762.333 467.409H772.33C770.171 441.249 759.88 416.42 742.899 396.403L735.842 403.461C734.87 404.467 733.708 405.269 732.423 405.821C731.138 406.373 729.756 406.664 728.357 406.676C726.958 406.688 725.571 406.422 724.277 405.892C722.982 405.362 721.806 404.58 720.817 403.591C719.828 402.602 719.046 401.426 718.517 400.132C717.987 398.837 717.72 397.45 717.733 396.052C717.745 394.653 718.035 393.271 718.587 391.986C719.139 390.701 719.942 389.538 720.948 388.567L728.005 381.509C707.989 364.529 683.16 354.238 657 352.079V362.075C657 364.869 655.89 367.548 653.915 369.523C651.94 371.499 649.26 372.609 646.467 372.609C643.673 372.609 640.994 371.499 639.019 369.523C637.043 367.548 635.933 364.869 635.933 362.075V352.079C609.773 354.238 584.945 364.529 564.928 381.509L571.986 388.567C572.992 389.538 573.794 390.701 574.346 391.986C574.898 393.271 575.189 394.653 575.201 396.052C575.213 397.45 574.946 398.837 574.417 400.132C573.887 401.426 573.105 402.602 572.116 403.591C571.127 404.58 569.951 405.362 568.656 405.892C567.362 406.422 565.975 406.688 564.576 406.676C563.178 406.664 561.796 406.373 560.51 405.821C559.225 405.269 558.063 404.467 557.091 403.461L550.034 396.403C533.054 416.42 522.763 441.249 520.604 467.409H530.6C533.394 467.409 536.073 468.518 538.048 470.494C540.024 472.469 541.133 475.148 541.133 477.942C541.133 480.736 540.024 483.415 538.048 485.39C536.073 487.365 533.394 488.475 530.6 488.475H520.604C522.763 514.635 533.054 539.464 550.034 559.48L557.091 552.423C559.078 550.504 561.739 549.443 564.501 549.467C567.262 549.491 569.904 550.598 571.857 552.551C573.81 554.504 574.918 557.146 574.942 559.908C574.966 562.67 573.904 565.331 571.986 567.317L564.928 574.375C584.945 591.355 609.773 601.646 635.933 603.805V593.809C635.933 591.015 637.043 588.336 639.019 586.36C640.994 584.385 643.673 583.275 646.467 583.275C649.26 583.275 651.94 584.385 653.915 586.36C655.89 588.336 657 591.015 657 593.809V603.805C683.16 601.646 707.989 591.355 728.005 574.375L720.948 567.317C719.029 565.331 717.967 562.67 717.991 559.908C718.015 557.146 719.123 554.504 721.076 552.551C723.029 550.598 725.671 549.491 728.433 549.467C731.195 549.443 733.855 550.504 735.842 552.423L742.899 559.48C759.88 539.464 770.171 514.635 772.33 488.475H762.333C759.54 488.475 756.861 487.365 754.885 485.39C752.91 483.415 751.8 480.736 751.8 477.942C751.8 475.148 752.91 472.469 754.885 470.494C756.861 468.518 759.54 467.409 762.333 467.409ZM686.83 504.855C686.063 506.006 685.076 506.994 683.926 507.764C682.777 508.533 681.487 509.069 680.13 509.34C678.773 509.611 677.377 509.612 676.019 509.343C674.662 509.074 673.372 508.54 672.221 507.772L640.621 486.706C639.179 485.743 637.996 484.44 637.178 482.911C636.361 481.383 635.933 479.676 635.933 477.942V404.209C635.933 401.415 637.043 398.736 639.019 396.76C640.994 394.785 643.673 393.675 646.467 393.675C649.26 393.675 651.94 394.785 653.915 396.76C655.89 398.736 657 401.415 657 404.209V472.307L683.913 490.213C685.068 490.981 686.06 491.969 686.833 493.122C687.605 494.274 688.142 495.567 688.413 496.928C688.684 498.288 688.684 499.689 688.413 501.049C688.141 502.409 687.603 503.703 686.83 504.855Z" fill="white"></path><path d="M646.667 330.475H678.067C680.86 330.475 683.54 329.366 685.515 327.39C687.49 325.415 688.6 322.736 688.6 319.942V235.675C688.6 232.882 687.49 230.202 685.515 228.227C683.54 226.252 680.86 225.142 678.067 225.142H404.2C401.406 225.142 398.727 224.032 396.752 222.057C394.776 220.081 393.667 217.402 393.667 214.609V199.778C393.712 196.584 392.824 193.447 391.109 190.752C389.395 188.057 386.93 185.922 384.018 184.61C381.197 183.243 378.039 182.73 374.93 183.134C371.822 183.539 368.9 184.842 366.522 186.885L273.281 264.926C271.4 266.508 269.888 268.482 268.851 270.711C267.813 272.939 267.276 275.367 267.276 277.824C267.276 280.282 267.813 282.71 268.851 284.938C269.888 287.166 271.4 289.141 273.281 290.722L321.471 331.086C347.341 333.181 372.19 342.108 393.477 356.956C393.477 356.577 393.656 356.25 393.656 355.903V341.009C393.656 338.215 394.766 335.536 396.741 333.56C398.717 331.585 401.396 330.475 404.19 330.475H646.667Z" fill="white"></path><path d="M309.2 604.342H309.6C343.106 604.289 375.22 590.935 398.884 567.214C422.549 543.494 435.826 511.348 435.8 477.842C435.773 444.336 422.445 412.211 398.743 388.528C375.041 364.845 342.906 351.542 309.4 351.542C275.894 351.542 243.759 364.845 220.057 388.528C196.355 412.211 183.027 444.336 183 477.842C182.974 511.348 196.251 543.494 219.916 567.214C243.58 590.935 275.694 604.289 309.2 604.342ZM309.4 488.475C299.158 488.488 289.264 484.762 281.574 477.998C273.884 471.233 268.928 461.894 267.635 451.734C266.342 441.575 268.802 431.292 274.552 422.817C280.302 414.342 288.948 408.257 298.867 405.704V404.208C298.867 401.415 299.976 398.736 301.952 396.76C303.927 394.785 306.606 393.675 309.4 393.675C312.194 393.675 314.873 394.785 316.848 396.76C318.824 398.736 319.933 401.415 319.933 404.208V405.704C328.951 408.033 336.944 413.283 342.661 420.636C348.378 427.988 351.498 437.028 351.533 446.342C351.533 449.135 350.424 451.815 348.448 453.79C346.473 455.765 343.794 456.875 341 456.875C338.206 456.875 335.527 455.765 333.552 453.79C331.576 451.815 330.467 449.135 330.467 446.342C330.467 442.175 329.231 438.102 326.916 434.638C324.601 431.173 321.311 428.473 317.462 426.879C313.612 425.284 309.377 424.867 305.29 425.68C301.204 426.493 297.45 428.499 294.504 431.445C291.557 434.392 289.551 438.145 288.738 442.232C287.925 446.318 288.342 450.554 289.937 454.404C291.531 458.253 294.232 461.543 297.696 463.858C301.16 466.173 305.233 467.408 309.4 467.408C319.642 467.396 329.536 471.121 337.226 477.886C344.916 484.651 349.872 493.989 351.165 504.149C352.458 514.309 349.998 524.591 344.248 533.067C338.498 541.542 329.852 547.627 319.933 550.179V551.675C319.933 554.469 318.824 557.148 316.848 559.123C314.873 561.099 312.194 562.208 309.4 562.208C306.606 562.208 303.927 561.099 301.952 559.123C299.976 557.148 298.867 554.469 298.867 551.675V550.179C289.849 547.851 281.856 542.6 276.139 535.248C270.422 527.895 267.302 518.856 267.267 509.542C267.267 506.748 268.376 504.069 270.352 502.094C272.327 500.118 275.006 499.008 277.8 499.008C280.594 499.008 283.273 500.118 285.248 502.094C287.224 504.069 288.333 506.748 288.333 509.542C288.333 513.708 289.569 517.781 291.884 521.246C294.199 524.71 297.489 527.41 301.338 529.005C305.188 530.599 309.423 531.017 313.51 530.204C317.596 529.391 321.35 527.384 324.296 524.438C327.243 521.492 329.249 517.738 330.062 513.652C330.875 509.565 330.458 505.329 328.863 501.48C327.269 497.631 324.568 494.34 321.104 492.026C317.64 489.711 313.567 488.475 309.4 488.475Z" fill="white"></path><path d="M562.379 598.928C562.379 599.307 562.2 599.633 562.2 599.981V614.875C562.2 617.669 561.09 620.348 559.115 622.323C557.139 624.299 554.46 625.409 551.667 625.409H277.8C275.006 625.409 272.327 626.518 270.352 628.494C268.376 630.469 267.267 633.148 267.267 635.942V720.209C267.267 723.002 268.376 725.681 270.352 727.657C272.327 729.632 275.006 730.742 277.8 730.742H551.667C554.46 730.742 557.139 731.852 559.115 733.827C561.09 735.802 562.2 738.482 562.2 741.275V756.117C562.154 759.31 563.043 762.448 564.757 765.143C566.472 767.838 568.937 769.972 571.849 771.285C574.669 772.654 577.828 773.168 580.937 772.764C584.046 772.36 586.968 771.055 589.344 769.009L682.585 690.968C684.466 689.386 685.979 687.412 687.016 685.184C688.053 682.956 688.591 680.528 688.591 678.07C688.591 675.612 688.053 673.184 687.016 670.956C685.979 668.728 684.466 666.754 682.585 665.172L634.395 624.808C608.521 622.712 583.669 613.781 562.379 598.928Z" fill="white"></path></svg> 