<?xml version="1.0" encoding="UTF-8"?> <svg xmlns="http://www.w3.org/2000/svg" width="710" height="710" viewBox="0 0 710 710" fill="none"><path fill-rule="evenodd" clip-rule="evenodd" d="M355 709.6C550.84 709.6 709.6 550.84 709.6 355C709.6 159.16 550.84 0.399902 355 0.399902C159.16 0.399902 0.399902 159.16 0.399902 355C0.399902 550.84 159.16 709.6 355 709.6ZM319.54 177.7C319.54 158.116 335.416 142.24 355 142.24C374.584 142.24 390.46 158.116 390.46 177.7V319.54H532.3C551.884 319.54 567.76 335.416 567.76 355C567.76 374.584 551.884 390.46 532.3 390.46H390.46V532.3C390.46 551.884 374.584 567.76 355 567.76C335.416 567.76 319.54 551.884 319.54 532.3V390.46H177.7C158.116 390.46 142.24 374.584 142.24 355C142.24 335.416 158.116 319.54 177.7 319.54H319.54V177.7Z" fill="#39A1FF"></path></svg> 