<?xml version="1.0" encoding="UTF-8"?> <svg xmlns="http://www.w3.org/2000/svg" width="2233" height="835" viewBox="0 0 2233 835" fill="none"><path d="M436.629 724.829C436.629 785.352 387.522 834.47 327.012 834.47C266.502 834.47 217.413 785.388 217.413 724.829C217.413 664.306 266.484 615.224 327.012 615.224C387.54 615.188 436.629 664.306 436.629 724.829ZM380.651 724.829C380.651 695.221 356.65 671.215 327.049 671.215C297.411 671.215 273.428 695.221 273.428 724.829C273.428 754.399 297.411 778.442 327.049 778.442C356.65 778.442 380.651 754.418 380.651 724.829ZM1537.43 206.469C1529.78 193.867 1526.1 192.946 1515.62 192.946H1512.1V354.912H1601.9C1612.29 354.912 1616.01 346.492 1610.17 336.101L1537.43 206.469ZM1349.67 394.855C1346.54 391.096 1341.7 388.591 1335.21 388.591C1310.03 388.591 1310.03 426.231 1335.1 426.231C1341.64 426.231 1346.47 423.707 1349.62 419.948H1394.95C1411.66 419.948 1411.66 394.855 1394.95 394.855H1349.67ZM1493.24 192.946L1348.73 192.965C1338.34 192.965 1329.93 201.384 1329.93 211.776V336.101C1329.93 346.492 1338.34 354.912 1348.73 354.912H1493.24V192.946ZM1141.8 0.618164C1162.56 0.618164 1179.43 17.4945 1179.43 38.2584V515.827C1181.39 538.894 1216.99 538.231 1216.99 513.819L1217.08 389.217C1217.08 373.151 1226.13 356.994 1246.65 356.054L1246.67 174.227C1246.67 156.909 1260.74 142.851 1278.07 142.851H1280.15H1511.62C1537.56 142.851 1552.49 151.677 1566.13 174.227L1668.41 356.017C1690.35 356.017 1699.97 372.691 1699.97 389.236L1700 610.121L1725.83 610.195C1736.22 610.195 1744.63 618.614 1744.63 629.042V678.621C1744.63 689.013 1736.22 697.414 1725.83 697.414H1562.77C1549.97 629.19 1490.11 577.621 1418.18 577.621C1346.25 577.621 1286.44 629.19 1273.6 697.414H471.627C458.826 629.19 398.961 577.621 327.049 577.621C255.1 577.621 195.272 629.19 182.433 697.414H19.4533C9.06442 697.414 0.646484 689.031 0.646484 678.621V629.042C0.646484 618.614 9.08284 610.195 19.4533 610.195L45.2966 610.121L45.536 38.2768C45.536 17.4761 62.4087 0.636578 83.1865 0.636578L1141.8 0.618164ZM1364.57 724.829C1364.57 754.399 1388.61 778.442 1418.19 778.442C1447.8 778.442 1471.8 754.399 1471.8 724.829C1471.8 695.221 1447.8 671.215 1418.19 671.215C1388.61 671.215 1364.57 695.221 1364.57 724.829ZM1308.6 724.829C1308.6 664.306 1357.67 615.224 1418.19 615.224C1478.74 615.224 1527.78 664.306 1527.78 724.829C1527.78 785.388 1478.76 834.47 1418.19 834.47C1357.67 834.433 1308.6 785.352 1308.6 724.829Z" fill="#5680F7"></path><circle cx="2029" cy="418" r="204" fill="#5680F7"></circle><path d="M1908.9 434.2L1883.4 397.45H1907.7L1921.35 417.7L1934.85 397.45H1958.4L1932.9 433.75L1961.55 475H1937.25L1921.05 450.55L1904.85 475H1881L1908.9 434.2ZM2020.37 475H1999.07V406.9H1972.67V390.85C1976.37 390.95 1979.92 390.7 1983.32 390.1C1986.82 389.4 1989.92 388.25 1992.62 386.65C1995.42 384.95 1997.77 382.75 1999.67 380.05C2001.57 377.35 2002.82 374 2003.42 370H2020.37V475ZM2169.76 415.15L2114.71 437.05L2169.76 458.95V476.05L2093.56 445.9V428.2L2169.76 397.9V415.15Z" fill="white"></path></svg> 