<?xml version="1.0" encoding="UTF-8"?> <svg xmlns="http://www.w3.org/2000/svg" width="956" height="956" viewBox="0 0 956 956" fill="none"><circle cx="478" cy="478" r="478" fill="#39A1FF"></circle><path fill-rule="evenodd" clip-rule="evenodd" d="M502.833 496.71L557.034 550.912C564.065 557.942 564.065 569.508 557.034 576.538C550.004 583.569 538.438 583.569 531.408 576.538L477.206 522.337C470.176 515.306 470.176 503.74 477.206 496.71C484.236 489.679 495.802 489.679 502.833 496.71Z" fill="white"></path><path d="M507.936 587.085L572.003 523.018C575.518 519.503 581.301 519.503 584.816 523.018L753.658 691.86C753.885 692.086 754.225 692.427 754.452 692.767C756.493 695.261 757.513 698.21 757.513 701.271C757.513 704.673 756.266 708.075 753.658 710.683L749.916 707.054L753.658 710.796L695.601 768.853C692.993 771.461 689.591 772.709 686.189 772.709C682.788 772.709 679.386 771.461 676.778 768.853L683.128 762.39L676.664 768.853L507.822 600.011C504.307 596.496 504.307 590.713 507.822 587.198L507.936 587.085Z" fill="white"></path><path fill-rule="evenodd" clip-rule="evenodd" d="M429.127 302.014C429.127 292.036 437.291 283.872 447.27 283.872C457.249 283.872 465.413 292.036 465.413 302.014V453.734C465.413 463.713 457.249 471.877 447.27 471.877C437.291 471.877 429.127 463.713 429.127 453.734V302.014ZM548.416 377.874C548.416 330.363 530.274 282.851 493.988 246.565C457.702 210.28 410.191 192.137 362.679 192.137C315.167 192.137 267.656 210.28 231.37 246.565C195.084 282.851 176.941 330.363 176.941 377.874C176.941 425.386 195.084 472.897 231.37 509.183C267.656 545.469 315.167 563.612 362.679 563.612C406.449 563.612 450.218 548.304 485.143 517.574C488.205 514.966 491.153 512.131 493.988 509.297C495.349 507.936 496.823 506.462 498.183 504.988C531.634 469.269 548.416 423.685 548.416 377.988V377.874ZM278.088 378.214C288.066 378.214 296.231 386.379 296.231 396.357V453.734C296.231 463.713 288.066 471.877 278.088 471.877C268.109 471.877 259.945 463.713 259.945 453.734V396.357C259.945 386.379 268.109 378.214 278.088 378.214ZM316.301 371.751C316.301 361.772 324.466 353.608 334.444 353.608C344.423 353.608 352.587 361.772 352.587 371.751V453.734C352.587 463.713 344.423 471.877 334.444 471.877C324.466 471.877 316.301 463.713 316.301 453.734V371.751ZM372.657 453.734V340.908C372.657 330.93 380.822 322.765 390.8 322.765C400.779 322.765 408.943 330.93 408.943 340.908V453.734C408.943 463.713 400.779 471.877 390.8 471.877C380.822 471.877 372.657 463.713 372.657 453.734Z" fill="white"></path></svg> 