<?xml version="1.0" encoding="UTF-8"?> <svg xmlns="http://www.w3.org/2000/svg" width="522" height="522" viewBox="0 0 522 522" fill="none"><path d="M261 0.657227C117.566 0.657227 0.886353 117.39 0.886353 260.889C0.886353 404.388 117.566 521.12 261 521.12C404.434 521.12 521.114 404.388 521.114 260.889C521.114 117.39 404.434 0.657227 261 0.657227ZM385.67 199.736L237.034 348.44C233.318 351.971 228.673 353.83 223.842 353.83C219.011 353.83 214.366 351.971 210.65 348.44L136.332 274.088C129.086 266.838 129.086 254.942 136.332 247.693C143.578 240.444 155.469 240.443 162.715 247.693L223.84 309.03L359.284 173.341C366.53 166.091 378.421 166.091 385.667 173.341C392.912 180.591 392.917 192.487 385.67 199.736Z" fill="#13F06F"></path></svg> 