<?xml version="1.0" encoding="UTF-8"?> <svg xmlns="http://www.w3.org/2000/svg" width="956" height="956" viewBox="0 0 956 956" fill="none"><circle cx="478" cy="478" r="478" fill="#39A1FF"></circle><path fill-rule="evenodd" clip-rule="evenodd" d="M438.808 562.442C424.929 582.446 405.167 597.621 382.271 605.856C356.179 614.51 328.424 616.922 301.233 612.897L202.918 746H398.237V678.254C398.237 676.112 399.087 674.057 400.6 672.542C402.113 671.027 404.166 670.176 406.305 670.176C408.445 670.176 410.497 671.027 412.011 672.542C413.524 674.057 414.374 676.112 414.374 678.254V746H577.524V661.554C577.524 659.648 578.196 657.804 579.423 656.347C580.651 654.89 582.353 653.915 584.229 653.594L677.694 633.252L625.423 562.474H619.341L586.805 615.062C586.081 616.244 585.064 617.218 583.852 617.89C582.641 618.562 581.277 618.91 579.892 618.899C578.507 618.887 577.148 618.518 575.948 617.826C574.748 617.134 573.746 616.144 573.041 614.951L540.597 562.455H491.44V599.976C491.47 601.056 491.285 602.131 490.893 603.137C490.502 604.144 489.912 605.062 489.16 605.836C488.409 606.611 487.509 607.227 486.515 607.647C485.521 608.068 484.453 608.284 483.375 608.284C482.296 608.284 481.228 608.068 480.234 607.647C479.24 607.227 478.341 606.611 477.589 605.836C476.837 605.062 476.248 604.144 475.856 603.137C475.465 602.131 475.279 601.056 475.309 599.976V562.442H438.808ZM602.188 300.618C597.057 295.473 590.303 292.269 583.077 291.55C575.85 290.832 568.598 292.645 562.557 296.679C556.516 300.714 552.059 306.721 549.945 313.677C547.832 320.633 548.193 328.107 550.967 334.826C553.741 341.546 558.757 347.094 565.159 350.526C571.561 353.958 578.954 355.061 586.077 353.648C593.201 352.235 599.614 348.392 604.225 342.775C608.836 337.158 611.359 330.114 611.364 322.844C611.372 318.717 610.565 314.629 608.99 310.815C607.415 307.001 605.104 303.536 602.188 300.618ZM579.989 275.296C590.986 275.294 601.643 279.111 610.145 286.094C618.646 293.078 624.466 302.797 626.613 313.595C628.759 324.393 627.099 335.603 621.916 345.313C616.732 355.023 608.346 362.634 598.187 366.847C588.027 371.061 576.722 371.618 566.198 368.422C555.675 365.227 546.583 358.477 540.474 349.322C534.364 340.168 531.613 329.176 532.691 318.219C533.769 307.262 538.608 297.019 546.385 289.233C550.792 284.808 556.03 281.299 561.797 278.907C567.564 276.515 573.747 275.288 579.989 275.296ZM607.668 550.768L579.989 595.547L552.31 550.768C552.1 550.346 551.852 549.944 551.569 549.567L478.292 431.038C477.892 430.382 478.456 431.281 477.59 429.85C461.714 403.503 456.936 371.923 464.305 342.051C471.609 312.03 490.43 286.097 516.694 269.869C517.316 269.488 516.49 270.007 517.906 269.154C519.715 268.064 521.463 267.069 523.15 266.168C524.897 265.223 526.645 264.333 528.393 263.497L528.983 263.222L529.376 263.031L530.438 262.566C546.027 255.616 562.901 252.024 579.966 252.024C597.031 252.024 613.905 255.616 629.494 262.566L630.962 263.222L631.617 263.524C633.354 264.35 635.098 265.236 636.861 266.148C638.624 267.06 640.276 268.045 642.104 269.134C643.52 269.987 642.694 269.469 643.317 269.849C669.578 286.08 688.399 312.011 695.706 342.031C703.076 371.905 698.294 403.485 682.413 429.83C681.555 431.261 682.119 430.369 681.712 431.018L608.435 549.56C608.153 549.942 607.904 550.346 607.687 550.768H607.668ZM308.397 695.132C309.719 696.453 310.543 698.193 310.728 700.055C310.912 701.916 310.447 703.784 309.409 705.341C308.372 706.897 306.828 708.045 305.04 708.589C303.252 709.133 301.332 709.039 299.605 708.324C297.878 707.608 296.453 706.316 295.572 704.666C294.69 703.016 294.408 701.112 294.772 699.277C295.137 697.442 296.126 695.79 297.57 694.604C299.015 693.417 300.826 692.769 302.694 692.769C303.754 692.766 304.803 692.974 305.782 693.379C306.76 693.784 307.649 694.38 308.397 695.132ZM302.694 676.614C308.293 676.613 313.718 678.556 318.046 682.111C322.374 685.667 325.336 690.614 326.429 696.111C327.522 701.608 326.677 707.315 324.039 712.258C321.401 717.201 317.132 721.076 311.96 723.222C306.788 725.367 301.033 725.651 295.676 724.025C290.318 722.399 285.69 718.964 282.578 714.304C279.467 709.645 278.066 704.049 278.614 698.471C279.161 692.893 281.623 687.678 285.581 683.714C287.825 681.459 290.492 679.67 293.429 678.452C296.366 677.233 299.515 676.608 302.694 676.614ZM337.996 661.055L348.109 673.641C343.954 676.981 339.851 680.4 335.761 683.819L325.431 671.41C329.593 667.926 333.769 664.454 337.996 661.055ZM365.203 641.71L373.455 655.589C369.031 658.214 364.751 661.081 360.576 664.08L351.144 650.956L351.321 650.832C355.824 647.603 360.438 644.519 365.203 641.691V641.71ZM397.706 628.691L400.485 644.604C395.783 645.454 391.193 646.841 386.806 648.738L380.547 633.849C386.054 631.487 391.81 629.757 397.706 628.691ZM463.197 648.64L455.109 662.61C450.521 659.946 445.933 657.223 441.279 654.683L449.027 640.516H449.072C453.831 643.141 458.504 645.89 463.197 648.614V648.64ZM518.778 666.666L520.469 682.729C514.407 683.335 508.292 683.141 502.281 682.152L504.804 666.2C509.421 666.968 514.12 667.125 518.778 666.666ZM543.298 655.445L553.785 667.729C549.491 671.48 544.743 674.677 539.653 677.244C539.273 677.434 538.887 677.624 538.493 677.801L531.749 663.102L532.529 662.722C536.411 660.748 540.031 658.294 543.304 655.418L543.298 655.445ZM419.938 645.339C418.04 644.841 416.111 644.466 414.164 644.217L416.13 628.186C422.174 629.005 428.081 630.627 433.696 633.009L427.587 647.957C425.089 646.916 422.525 646.04 419.912 645.333L419.938 645.339ZM477.348 674.442C474.726 673.254 472.104 671.974 469.483 670.636L476.915 656.298C481.365 658.648 485.963 660.706 490.679 662.459L485.213 677.644C482.591 676.686 479.97 675.61 477.348 674.455V674.442ZM563.492 632.615L576.371 642.347C573.29 646.435 570.138 650.484 566.808 654.382L565.943 655.392L553.765 644.795L554.237 644.25C557.462 640.483 560.509 636.579 563.492 632.615ZM388.274 305.75C388.274 286.614 382.607 267.908 371.988 251.998C361.369 236.087 346.276 223.687 328.617 216.364C310.959 209.041 291.528 207.126 272.782 210.86C254.036 214.593 236.817 223.808 223.302 237.34C209.787 250.871 200.584 268.111 196.856 286.879C193.128 305.647 195.043 325.1 202.358 342.779C209.673 360.458 222.06 375.567 237.953 386.198C253.846 396.828 272.53 402.501 291.644 402.5C304.334 402.5 316.9 399.997 328.624 395.135C340.348 390.273 351.001 383.146 359.974 374.162C368.947 365.178 376.065 354.512 380.921 342.774C385.776 331.036 388.275 318.455 388.274 305.75ZM283.575 242.453C283.635 240.351 284.511 238.356 286.017 236.891C287.523 235.425 289.54 234.605 291.64 234.605C293.741 234.605 295.758 235.425 297.264 236.891C298.77 238.356 299.646 240.351 299.706 242.453V301.511L336.305 326.446C337.964 327.69 339.081 329.526 339.422 331.572C339.763 333.619 339.302 335.719 338.135 337.434C336.969 339.149 335.186 340.347 333.159 340.779C331.132 341.212 329.017 340.844 327.253 339.754L287.58 312.719C286.366 312.006 285.36 310.988 284.66 309.766C283.961 308.543 283.594 307.159 283.595 305.75V242.453H283.575ZM688.201 647.459L761 746H593.655V668.05L688.201 647.459ZM312.382 597.811L338.507 562.442H418.306C407.086 575.24 392.797 584.968 376.785 590.711C356.071 597.662 334.109 600.083 312.382 597.811Z" fill="white"></path></svg> 