<?xml version="1.0" encoding="UTF-8"?> <svg xmlns="http://www.w3.org/2000/svg" width="956" height="956" viewBox="0 0 956 956" fill="none"><circle cx="478" cy="478" r="478" fill="#39A1FF"></circle><path d="M478 641.2C507.964 641.2 537.255 632.321 562.169 615.684C587.083 599.048 606.501 575.403 617.968 547.738C629.434 520.073 632.435 489.632 626.589 460.263C620.743 430.895 606.314 403.918 585.127 382.744C563.939 361.57 536.944 347.151 507.556 341.309C478.168 335.467 447.706 338.466 420.023 349.925C392.34 361.384 368.679 380.789 352.032 405.687C335.385 430.584 326.5 459.856 326.5 489.8C326.545 529.94 342.522 568.423 370.924 596.806C399.325 625.189 437.834 641.155 478 641.2ZM417.4 439.333C417.427 425.036 422.509 411.207 431.75 400.292C440.991 389.377 453.795 382.077 467.9 379.682V368.68C467.9 366.003 468.964 363.436 470.858 361.543C472.752 359.65 475.321 358.587 478 358.587C480.679 358.587 483.248 359.65 485.142 361.543C487.036 363.436 488.1 366.003 488.1 368.68V379.682C502.205 382.077 515.009 389.377 524.25 400.292C533.491 411.207 538.573 425.036 538.6 439.333C538.6 442.01 537.536 444.578 535.642 446.47C533.748 448.363 531.179 449.427 528.5 449.427C525.821 449.427 523.252 448.363 521.358 446.47C519.464 444.578 518.4 442.01 518.4 439.333C518.367 430.409 515.375 421.747 509.893 414.701C504.411 407.656 496.747 402.624 488.1 400.393V480.615C502.215 482.987 515.031 490.281 524.275 501.202C533.518 512.123 538.59 525.963 538.59 540.267C538.59 554.57 533.518 568.411 524.275 579.331C515.031 590.252 502.215 597.546 488.1 599.918V610.92C488.1 613.597 487.036 616.164 485.142 618.057C483.248 619.95 480.679 621.013 478 621.013C475.321 621.013 472.752 619.95 470.858 618.057C468.964 616.164 467.9 613.597 467.9 610.92V599.918C453.795 597.523 440.991 590.223 431.75 579.308C422.509 568.393 417.427 554.564 417.4 540.267C417.4 537.59 418.464 535.022 420.358 533.13C422.252 531.237 424.821 530.173 427.5 530.173C430.179 530.173 432.748 531.237 434.642 533.13C436.536 535.022 437.6 537.59 437.6 540.267C437.633 549.191 440.625 557.853 446.107 564.899C451.589 571.944 459.253 576.976 467.9 579.207V498.985C453.795 496.59 440.991 489.29 431.75 478.375C422.509 467.459 417.427 453.631 417.4 439.333Z" fill="white"></path><path d="M195.2 348.493C195.2 356.524 198.392 364.226 204.075 369.905C209.757 375.583 217.464 378.773 225.5 378.773H297.675C318.13 345.457 347.421 318.454 382.297 300.76C417.174 283.066 456.273 275.371 495.259 278.53C534.245 281.689 571.593 295.578 603.161 318.657C634.73 341.735 659.284 373.101 674.102 409.275L759.032 322.079C759.578 321.598 760.016 321.006 760.315 320.343C760.615 319.68 760.77 318.961 760.77 318.234C760.77 317.506 760.615 316.787 760.315 316.124C760.016 315.461 759.578 314.869 759.032 314.388L657.841 210.386C656.759 209.323 655.473 208.491 654.059 207.941C652.646 207.391 651.135 207.134 649.619 207.187C647.275 206.963 644.934 207.644 643.075 209.088C641.217 210.533 639.981 212.633 639.62 214.959V247.56C639.62 250.237 638.556 252.804 636.662 254.697C634.768 256.59 632.199 257.653 629.52 257.653H225.5C217.464 257.653 209.757 260.844 204.075 266.522C198.392 272.201 195.2 279.903 195.2 287.933V348.493Z" fill="white"></path><path d="M467.9 400.393C459.238 402.596 451.558 407.621 446.073 414.672C440.587 421.724 437.609 430.402 437.609 439.333C437.609 448.265 440.587 456.942 446.073 463.994C451.558 471.046 459.238 476.07 467.9 478.273V400.393Z" fill="white"></path><path d="M518.4 540.267C518.367 531.342 515.375 522.68 509.893 515.635C504.411 508.589 496.747 503.558 488.1 501.327V579.207C496.747 576.976 504.411 571.944 509.893 564.899C515.375 557.853 518.367 549.191 518.4 540.267Z" fill="white"></path><path d="M478 681.573C515.954 681.573 553.056 670.326 584.614 649.254C616.172 628.181 640.768 598.23 655.292 563.188C669.817 528.146 673.617 489.587 666.213 452.387C658.808 415.187 640.531 381.016 613.694 354.196C586.856 327.376 552.663 309.111 515.438 301.712C478.213 294.312 439.628 298.11 404.563 312.625C369.498 327.139 339.527 351.72 318.441 383.256C297.355 414.793 286.1 451.871 286.1 489.8C286.156 540.644 306.392 589.39 342.368 625.342C378.344 661.295 427.122 681.517 478 681.573ZM478 318.213C511.959 318.213 545.155 328.277 573.391 347.131C601.627 365.985 623.635 392.783 636.63 424.137C649.626 455.49 653.026 489.99 646.401 523.275C639.776 556.559 623.423 587.133 599.41 611.13C575.398 635.127 544.804 651.469 511.497 658.09C478.19 664.71 443.667 661.312 412.293 648.325C380.919 635.338 354.103 613.346 335.237 585.128C316.37 556.911 306.3 523.737 306.3 489.8C306.351 444.308 324.457 400.694 356.646 368.526C388.835 336.358 432.478 318.264 478 318.213Z" fill="white"></path><path d="M760.8 631.107C760.8 623.076 757.608 615.374 751.925 609.695C746.243 604.017 738.536 600.827 730.5 600.827H658.325C637.87 634.143 608.579 661.146 573.703 678.84C538.826 696.534 499.727 704.229 460.741 701.07C421.755 697.911 384.407 684.022 352.839 660.943C321.27 637.865 296.716 606.499 281.898 570.325L196.968 657.521C196.422 658.002 195.984 658.594 195.685 659.257C195.385 659.92 195.23 660.639 195.23 661.366C195.23 662.094 195.385 662.813 195.685 663.476C195.984 664.139 196.422 664.731 196.968 665.212L298.2 769.173C299.281 770.237 300.568 771.069 301.981 771.619C303.394 772.169 304.905 772.425 306.421 772.373C308.765 772.596 311.106 771.916 312.965 770.471C314.824 769.027 316.06 766.927 316.42 764.601V732.04C316.42 729.363 317.484 726.796 319.378 724.903C321.273 723.01 323.842 721.947 326.52 721.947H730.5C738.536 721.947 746.243 718.756 751.925 713.078C757.608 707.399 760.8 699.697 760.8 691.667V631.107Z" fill="white"></path></svg> 