<?xml version="1.0" encoding="UTF-8"?> <svg xmlns="http://www.w3.org/2000/svg" width="2233" height="834" viewBox="0 0 2233 834" fill="none"><path d="M436.629 724.211C436.629 784.733 387.522 833.852 327.012 833.852C266.502 833.852 217.413 784.77 217.413 724.211C217.413 663.688 266.484 614.606 327.012 614.606C387.54 614.569 436.629 663.688 436.629 724.211ZM380.651 724.211C380.651 694.603 356.65 670.597 327.049 670.597C297.411 670.597 273.428 694.603 273.428 724.211C273.428 753.781 297.411 777.824 327.049 777.824C356.65 777.824 380.651 753.8 380.651 724.211ZM1537.43 205.851C1529.78 193.249 1526.1 192.328 1515.62 192.328H1512.1V354.294H1601.9C1612.29 354.294 1616.01 345.874 1610.17 335.483L1537.43 205.851ZM1349.67 394.237C1346.54 390.478 1341.7 387.973 1335.21 387.973C1310.03 387.973 1310.03 425.613 1335.1 425.613C1341.64 425.613 1346.47 423.089 1349.62 419.33H1394.95C1411.66 419.33 1411.66 394.237 1394.95 394.237H1349.67ZM1493.24 192.328L1348.73 192.347C1338.34 192.347 1329.93 200.766 1329.93 211.157V335.483C1329.93 345.874 1338.34 354.294 1348.73 354.294H1493.24V192.328ZM1141.8 0C1162.56 0 1179.43 16.8764 1179.43 37.6402V515.209C1181.39 538.276 1216.99 537.612 1216.99 513.201L1217.08 388.599C1217.08 372.533 1226.13 356.375 1246.65 355.436L1246.67 173.609C1246.67 156.291 1260.74 142.233 1278.07 142.233H1280.15H1511.62C1537.56 142.233 1552.49 151.058 1566.13 173.609L1668.41 355.399C1690.35 355.399 1699.97 372.073 1699.97 388.617L1700 609.503L1725.83 609.576C1736.22 609.576 1744.63 617.996 1744.63 628.424V678.003C1744.63 688.394 1736.22 696.796 1725.83 696.796H1562.77C1549.97 628.572 1490.11 577.003 1418.18 577.003C1346.25 577.003 1286.44 628.572 1273.6 696.796H471.627C458.826 628.572 398.961 577.003 327.049 577.003C255.1 577.003 195.272 628.572 182.433 696.796H19.4533C9.06442 696.796 0.646484 688.413 0.646484 678.003V628.424C0.646484 617.996 9.08284 609.576 19.4533 609.576L45.2966 609.503L45.536 37.6587C45.536 16.858 62.4087 0.0184139 83.1865 0.0184139L1141.8 0ZM1364.57 724.211C1364.57 753.781 1388.61 777.824 1418.19 777.824C1447.8 777.824 1471.8 753.781 1471.8 724.211C1471.8 694.603 1447.8 670.597 1418.19 670.597C1388.61 670.597 1364.57 694.603 1364.57 724.211ZM1308.6 724.211C1308.6 663.688 1357.67 614.606 1418.19 614.606C1478.74 614.606 1527.78 663.688 1527.78 724.211C1527.78 784.77 1478.76 833.852 1418.19 833.852C1357.67 833.815 1308.6 784.733 1308.6 724.211Z" fill="white"></path><circle cx="2029" cy="417.382" r="204" fill="white"></circle><path d="M1908.9 433.582L1883.4 396.832H1907.7L1921.35 417.082L1934.85 396.832H1958.4L1932.9 433.132L1961.55 474.382H1937.25L1921.05 449.932L1904.85 474.382H1881L1908.9 433.582ZM2036.57 386.932H1993.22L1989.02 410.782L1989.32 411.082C1992.22 408.182 1995.32 406.132 1998.62 404.932C2001.92 403.632 2005.67 402.982 2009.87 402.982C2015.07 402.982 2019.67 403.932 2023.67 405.832C2027.67 407.732 2031.02 410.282 2033.72 413.482C2036.52 416.682 2038.62 420.482 2040.02 424.882C2041.52 429.182 2042.27 433.782 2042.27 438.682C2042.27 444.082 2041.22 449.132 2039.12 453.832C2037.02 458.432 2034.17 462.432 2030.57 465.832C2027.07 469.232 2022.97 471.882 2018.27 473.782C2013.57 475.582 2008.57 476.432 2003.27 476.332C1998.17 476.332 1993.27 475.682 1988.57 474.382C1983.97 472.982 1979.87 470.882 1976.27 468.082C1972.67 465.282 1969.77 461.832 1967.57 457.732C1965.47 453.532 1964.37 448.682 1964.27 443.182H1985.57C1986.07 447.982 1987.87 451.832 1990.97 454.732C1994.07 457.532 1998.02 458.932 2002.82 458.932C2005.62 458.932 2008.12 458.382 2010.32 457.282C2012.62 456.082 2014.52 454.582 2016.02 452.782C2017.62 450.882 2018.82 448.732 2019.62 446.332C2020.52 443.832 2020.97 441.282 2020.97 438.682C2020.97 435.982 2020.57 433.432 2019.77 431.032C2018.97 428.632 2017.77 426.532 2016.17 424.732C2014.57 422.932 2012.67 421.532 2010.47 420.532C2008.27 419.532 2005.72 419.032 2002.82 419.032C1999.02 419.032 1995.92 419.732 1993.52 421.132C1991.12 422.432 1988.87 424.532 1986.77 427.432H1967.57L1977.92 369.382H2036.57V386.932ZM2169.76 414.532L2114.71 436.432L2169.76 458.332V475.432L2093.56 445.282V427.582L2169.76 397.282V414.532Z" fill="#5680F7"></path></svg> 