<?xml version="1.0" encoding="UTF-8"?> <svg xmlns="http://www.w3.org/2000/svg" width="956" height="956" viewBox="0 0 956 956" fill="none"><circle cx="478" cy="478" r="478" fill="#39A1FF"></circle><path d="M742.056 407.842V548.457L792.008 531.794V424.189L742.056 407.842ZM733.854 599.885C729.336 599.885 725.651 596.264 725.651 591.681V293.822H613.186V591.681C613.186 596.264 609.501 599.885 604.983 599.885H588.418C582.747 605.044 576.851 609.818 570.603 614.081L615.877 691.854L669.354 784.627L722.03 691.919L775.506 599.885H733.854ZM477.04 329.843C395.335 329.843 328.91 396.304 328.91 477.989C328.91 559.703 395.363 626.136 477.04 626.136C502.641 626.136 526.992 619.887 548.331 608.415L541.026 595.853C539.552 593.322 539.552 590.182 541.026 587.65C542.5 585.119 545.223 583.452 548.171 583.452H581.879C587.198 578.197 592.228 572.364 596.81 566.212L596.778 389.706C568.582 351.669 525.104 329.843 477.04 329.843ZM527.312 532.042C520.263 548.705 503.922 560.594 485.242 563.286V582.224C485.242 586.743 481.557 590.428 477.04 590.428C472.522 590.428 468.837 586.743 468.837 582.224V563.19C447.69 560.081 430.452 545.053 424.62 523.743C423.403 519.32 426.03 514.898 430.356 513.648C434.713 512.431 439.199 515.058 440.449 519.384C445.031 536.432 459.481 547.456 477.04 547.456C492.292 547.456 506.742 538.516 512.221 525.633C516.643 515.123 514.176 504.291 505.236 495.03C497.354 487.724 493.349 487.467 484.57 486.923C481.943 486.762 479.059 486.602 475.887 486.185C461.276 487.083 447.914 482.244 438.078 472.406C424.204 458.05 420.456 440.233 427.569 423.441C434.618 406.778 451.023 395.05 469.799 392.582V373.708C469.799 369.19 473.484 365.504 478.001 365.504C482.519 365.504 486.204 369.19 486.204 373.708V392.806C507.287 396.267 524.749 411.52 530.421 432.189C531.638 436.612 529.011 441.034 524.685 442.284C520.264 443.502 515.842 440.874 514.592 436.548C510.01 419.724 494.919 408.476 477.04 408.476C461.949 408.476 448.075 417.001 442.66 429.819C438.142 440.49 440.705 451.481 449.805 460.902C456.373 467.471 465.217 470.58 475.47 469.746C476.047 469.746 476.527 469.746 477.104 469.843C480.308 470.259 483.096 470.419 485.627 470.58C495.625 471.156 504.243 471.733 516.708 483.301C530.677 497.658 534.361 515.379 527.312 532.042ZM556.598 622.6C532.727 635.546 505.653 642.532 477.04 642.532C386.327 642.532 312.504 568.701 312.504 477.979C312.504 387.257 386.327 313.426 477.04 313.426C523.371 313.426 565.857 331.723 596.813 364.28V285.611C596.813 281.029 600.498 277.407 605.016 277.407H721.648L661.282 216.939L607.71 244.594C607.549 244.69 607.453 244.69 607.293 244.69C606.556 245.01 605.819 245.267 604.986 245.331C604.73 245.331 604.57 245.427 604.345 245.427H604.025C603.288 245.427 602.455 245.267 601.718 245.106C601.558 245.01 601.398 244.946 601.237 244.85C600.917 244.754 600.661 244.69 600.404 244.594C583.006 235.909 569.164 230.238 555.29 226.136H555.194C554.297 225.815 553.4 225.303 552.663 224.726C552.407 224.566 552.246 224.309 552.022 224.149C551.541 223.668 551.125 223.156 550.708 222.579C550.548 222.258 550.388 221.938 550.228 221.585C550.132 221.329 549.971 221.105 549.811 220.848L547.921 215.176L531.676 162.975H423.311L404.279 220.88C404.183 221.137 404.023 221.297 403.959 221.457C403.702 222.034 403.478 222.45 403.126 222.931C402.805 223.348 402.485 223.764 402.132 224.149C401.716 224.469 401.395 224.726 400.915 225.046C400.434 225.367 399.922 225.623 399.441 225.783C399.185 225.879 399.024 226.04 398.8 226.104C384.446 230.366 370.091 236.358 354.903 244.465C354.583 244.626 354.262 244.722 353.91 244.786C353.75 244.882 353.59 244.946 353.333 245.042C352.596 245.203 351.763 245.363 351.026 245.363H350.706C350.449 245.363 350.289 245.267 350.065 245.267C349.232 245.17 348.495 244.946 347.758 244.626C347.598 244.53 347.438 244.626 347.342 244.53L292.872 216.875L216.005 293.75L243.335 346.72C243.496 346.976 243.496 347.297 243.656 347.553C243.912 348.034 244.072 348.611 244.233 349.123C244.329 349.7 244.393 350.181 244.393 350.694C244.393 351.174 244.393 351.687 244.297 352.264C244.201 352.841 244.04 353.321 243.88 353.834C243.784 354.155 243.784 354.411 243.624 354.731C234.941 372.036 229.269 385.911 225.168 399.754C225.072 400.075 224.912 400.235 224.848 400.491C224.687 400.908 224.527 401.228 224.367 401.549C224.047 402.126 223.63 402.606 223.214 403.023C222.957 403.279 222.797 403.504 222.477 403.76C221.74 404.401 220.843 404.914 219.945 405.234L163.008 424.173V531.81L219.945 550.749C220.202 550.845 220.362 551.069 220.586 551.165C221.067 551.326 221.579 551.646 221.996 551.902C222.413 552.223 222.829 552.543 223.214 552.96C223.534 553.28 223.79 553.697 224.111 554.113C224.431 554.594 224.688 555.107 224.848 555.588C225.008 555.844 225.168 556.004 225.168 556.228C229.269 570.104 234.941 583.947 243.624 601.251C243.72 601.508 243.72 601.668 243.784 601.828C244.041 602.405 244.105 602.886 244.201 603.463C244.297 603.943 244.457 604.456 244.457 604.937C244.457 605.417 244.297 605.93 244.201 606.411C244.105 606.988 244.041 607.564 243.784 608.045C243.688 608.205 243.688 608.462 243.624 608.622L240.74 614.294L215.973 662.2L292.84 738.98L347.31 711.325C347.47 711.229 347.726 711.229 347.886 711.165C348.463 710.909 349.04 710.844 349.617 710.748C350.097 710.652 350.61 710.588 351.091 710.588C351.571 710.588 352.084 710.684 352.564 710.748C353.141 710.909 353.622 711.005 354.199 711.229C354.359 711.325 354.615 711.325 354.839 711.389C370.027 719.497 384.382 725.489 398.736 729.751C398.993 729.847 399.153 730.007 399.377 730.071C399.858 730.232 400.37 730.488 400.851 730.809C401.268 731.129 401.684 731.385 402.069 731.802C402.389 732.122 402.709 732.539 403.062 732.955C403.382 733.436 403.639 733.853 403.895 734.43C403.991 734.59 404.151 734.75 404.215 735.006L423.248 792.911L531.677 792.975L549.812 735.07C549.909 734.814 550.133 734.654 550.229 734.494C550.389 733.917 550.71 733.5 551.062 733.019C551.318 732.603 551.639 732.186 552.055 731.866C552.376 731.449 552.792 731.225 553.209 730.873C553.689 730.552 554.202 730.296 554.779 730.136C554.939 730.039 555.099 729.879 555.355 729.815C569.229 725.713 583.071 720.042 600.47 711.357C600.63 711.261 600.79 711.261 600.95 711.197C601.527 711.037 602.008 710.877 602.584 710.781C603.065 710.684 603.578 710.62 604.058 710.62C604.635 710.62 605.116 710.716 605.628 710.781C606.205 710.877 606.686 711.037 607.262 711.197C607.423 711.293 607.583 711.293 607.743 711.357L608.384 711.678L601.751 700.013L556.598 622.6Z" fill="white"></path></svg> 