<?xml version="1.0" encoding="UTF-8"?> <svg xmlns="http://www.w3.org/2000/svg" width="956" height="956" viewBox="0 0 956 956" fill="none"><circle cx="478" cy="478" r="478" fill="#39A1FF"></circle><path d="M661.202 237.141C661.202 237.423 597.778 236.578 598.37 237.451C597.694 244.211 599.355 260.661 597.468 266.941C595.103 279.025 588.174 283.166 586.738 288.095H585.245C577.951 295.108 568.122 299.277 557.251 299.277H399.109C388.238 299.277 378.268 294.968 370.805 287.954H369.171V286.32C356.3 274.406 357.765 253.196 357.99 237.17H295.157C278.766 237.17 265.36 250.577 265.36 266.97V732.225C265.36 748.618 278.766 762.025 295.157 762.025H661.203C677.594 762.025 691 748.618 691 732.225V266.941C691 250.548 677.593 237.141 661.202 237.141ZM514.243 497.627C541.505 497.627 563.671 475.432 563.671 448.026V426.732C517.06 410.085 528.579 340.427 578.569 340.059C628.588 340.426 640.107 410.139 593.468 426.732V448.026C593.468 491.825 557.869 527.401 514.245 527.401H448.427C421.165 527.401 399 549.596 399 576.834V598.128C445.61 614.774 434.092 684.432 384.101 684.8C334.083 684.434 322.563 614.721 369.203 598.128V576.834C369.203 533.203 404.802 497.603 448.425 497.603H514.243V497.627ZM538.352 625.112C524.692 611.338 545.561 590.411 559.362 604.1L574.401 619.14L589.44 604.1C595.242 598.297 604.789 598.297 610.591 604.1C623.885 618.549 604.226 630.492 595.552 640.153L610.591 655.194C616.393 660.996 616.393 670.545 610.591 676.347C604.592 682.093 595.383 682.093 589.44 676.347L574.401 661.306C568.543 666.179 557.616 681.755 548.8 680.657C536.07 681.051 528.945 664.01 538.38 655.195L553.419 640.154L538.38 625.113L538.352 625.112ZM369.035 346.628L384.074 361.669L399.113 346.628C404.915 340.826 414.293 340.826 420.123 346.628C433.417 361.078 413.758 373.021 405.084 382.682L420.123 397.723C433.754 411.525 413.082 432.537 399.113 418.876L384.074 403.835C378.272 408.68 367.204 424.284 358.473 423.186C345.659 423.636 338.421 406.623 347.912 397.723L362.951 382.683L347.912 367.642C334.197 353.784 355.234 332.968 369.063 346.629L369.035 346.628Z" fill="white"></path><path d="M399.108 269.474H557.25C563.446 269.53 568.572 264.46 568.572 258.151V237.138C568.431 218.971 553.533 204.38 535.367 204.38H520.778C518.271 146.357 436.343 146.977 435.586 204.38H420.998C402.719 204.38 387.764 219.168 387.793 237.448V258.15C387.793 264.431 392.884 269.53 399.108 269.474Z" fill="white"></path><path d="M369.173 640.154C369.454 659.729 398.575 659.729 398.97 640.154C398.604 620.578 369.454 620.606 369.173 640.154Z" fill="white"></path><path d="M578.569 399.634C598.172 399.353 598.172 370.031 578.569 369.834C558.996 370.116 558.996 399.24 578.569 399.634Z" fill="white"></path></svg> 