<?xml version="1.0" encoding="UTF-8"?> <svg xmlns="http://www.w3.org/2000/svg" width="2233" height="834" viewBox="0 0 2233 834" fill="none"><path d="M436.629 724.211C436.629 784.733 387.522 833.852 327.012 833.852C266.502 833.852 217.413 784.77 217.413 724.211C217.413 663.688 266.484 614.606 327.012 614.606C387.54 614.569 436.629 663.688 436.629 724.211ZM380.651 724.211C380.651 694.603 356.65 670.597 327.049 670.597C297.411 670.597 273.428 694.603 273.428 724.211C273.428 753.781 297.411 777.824 327.049 777.824C356.65 777.824 380.651 753.8 380.651 724.211ZM1537.43 205.851C1529.78 193.249 1526.1 192.328 1515.62 192.328H1512.1V354.294H1601.9C1612.29 354.294 1616.01 345.874 1610.17 335.483L1537.43 205.851ZM1349.67 394.237C1346.54 390.478 1341.7 387.973 1335.21 387.973C1310.03 387.973 1310.03 425.613 1335.1 425.613C1341.64 425.613 1346.47 423.089 1349.62 419.33H1394.95C1411.66 419.33 1411.66 394.237 1394.95 394.237H1349.67ZM1493.24 192.328L1348.73 192.347C1338.34 192.347 1329.93 200.766 1329.93 211.157V335.483C1329.93 345.874 1338.34 354.294 1348.73 354.294H1493.24V192.328ZM1141.8 0C1162.56 0 1179.43 16.8764 1179.43 37.6402V515.209C1181.39 538.276 1216.99 537.612 1216.99 513.201L1217.08 388.599C1217.08 372.533 1226.13 356.375 1246.65 355.436L1246.67 173.609C1246.67 156.291 1260.74 142.233 1278.07 142.233H1280.15H1511.62C1537.56 142.233 1552.49 151.058 1566.13 173.609L1668.41 355.399C1690.35 355.399 1699.97 372.073 1699.97 388.617L1700 609.503L1725.83 609.576C1736.22 609.576 1744.63 617.996 1744.63 628.424V678.003C1744.63 688.394 1736.22 696.796 1725.83 696.796H1562.77C1549.97 628.572 1490.11 577.003 1418.18 577.003C1346.25 577.003 1286.44 628.572 1273.6 696.796H471.627C458.826 628.572 398.961 577.003 327.049 577.003C255.1 577.003 195.272 628.572 182.433 696.796H19.4533C9.06442 696.796 0.646484 688.413 0.646484 678.003V628.424C0.646484 617.996 9.08284 609.576 19.4533 609.576L45.2966 609.503L45.536 37.6587C45.536 16.858 62.4087 0.0184139 83.1865 0.0184139L1141.8 0ZM1364.57 724.211C1364.57 753.781 1388.61 777.824 1418.19 777.824C1447.8 777.824 1471.8 753.781 1471.8 724.211C1471.8 694.603 1447.8 670.597 1418.19 670.597C1388.61 670.597 1364.57 694.603 1364.57 724.211ZM1308.6 724.211C1308.6 663.688 1357.67 614.606 1418.19 614.606C1478.74 614.606 1527.78 663.688 1527.78 724.211C1527.78 784.77 1478.76 833.852 1418.19 833.852C1357.67 833.815 1308.6 784.733 1308.6 724.211Z" fill="white"></path><circle cx="2029" cy="417.382" r="204" fill="white"></circle><path d="M1876.67 422.846L1853.21 389.036H1875.56L1888.12 407.666L1900.54 389.036H1922.21L1898.75 422.432L1925.11 460.382H1902.75L1887.85 437.888L1872.94 460.382H1851L1876.67 422.846ZM1979.22 460.382H1959.62V397.73H1935.33V382.964C1938.74 383.056 1942 382.826 1945.13 382.274C1948.35 381.63 1951.2 380.572 1953.69 379.1C1956.26 377.536 1958.43 375.512 1960.17 373.028C1961.92 370.544 1963.07 367.462 1963.62 363.782H1979.22V460.382ZM2024.3 411.668C2024.3 414.428 2024.39 417.786 2024.57 421.742C2024.76 425.606 2025.31 429.378 2026.23 433.058C2027.24 436.646 2028.8 439.728 2030.92 442.304C2033.04 444.88 2036.07 446.168 2040.03 446.168C2044.08 446.168 2047.16 444.88 2049.27 442.304C2051.48 439.728 2053.05 436.646 2053.97 433.058C2054.98 429.378 2055.58 425.606 2055.76 421.742C2055.94 417.786 2056.04 414.428 2056.04 411.668C2056.04 410.012 2055.99 408.034 2055.9 405.734C2055.9 403.342 2055.71 400.904 2055.35 398.42C2055.07 395.936 2054.61 393.498 2053.97 391.106C2053.41 388.622 2052.54 386.414 2051.34 384.482C2050.15 382.55 2048.63 380.986 2046.79 379.79C2044.95 378.594 2042.7 377.996 2040.03 377.996C2037.36 377.996 2035.11 378.594 2033.27 379.79C2031.52 380.986 2030.05 382.55 2028.85 384.482C2027.75 386.414 2026.87 388.622 2026.23 391.106C2025.58 393.498 2025.12 395.936 2024.85 398.42C2024.57 400.904 2024.39 403.342 2024.3 405.734C2024.3 408.034 2024.3 410.012 2024.3 411.668ZM2004.7 411.668C2004.7 402.284 2005.62 394.418 2007.46 388.07C2009.39 381.63 2011.97 376.478 2015.19 372.614C2018.41 368.75 2022.13 365.99 2026.37 364.334C2030.69 362.678 2035.24 361.85 2040.03 361.85C2044.9 361.85 2049.46 362.678 2053.69 364.334C2058.01 365.99 2061.79 368.75 2065.01 372.614C2068.32 376.478 2070.89 381.63 2072.73 388.07C2074.67 394.418 2075.63 402.284 2075.63 411.668C2075.63 421.328 2074.67 429.424 2072.73 435.956C2070.89 442.396 2068.32 447.548 2065.01 451.412C2061.79 455.276 2058.01 458.036 2053.69 459.692C2049.46 461.348 2044.9 462.176 2040.03 462.176C2035.24 462.176 2030.69 461.348 2026.37 459.692C2022.13 458.036 2018.41 455.276 2015.19 451.412C2011.97 447.548 2009.39 442.396 2007.46 435.956C2005.62 429.424 2004.7 421.328 2004.7 411.668ZM2193.34 405.32L2142.7 425.468L2193.34 445.616V461.348L2123.24 433.61V417.326L2193.34 389.45V405.32Z" fill="black"></path></svg> 